<mxfile host="app.diagrams.net" agent="Mozilla/5.0 (X11; Linux x86_64; rv:133.0) Gecko/20100101 Firefox/133.0" version="25.0.3">
  <diagram name="Page-1" id="e3a06f82-3646-2815-327d-82caf3d4e204">
    <mxGraphModel dx="3412.5" dy="2101" grid="1" gridSize="10" guides="1" tooltips="1" connect="1" arrows="1" fold="1" page="1" pageScale="1.5" pageWidth="1169" pageHeight="826" background="none" math="0" shadow="0">
      <root>
        <mxCell id="0" style=";html=1;" />
        <mxCell id="1" style=";html=1;" parent="0" />
        <mxCell id="szwY4Oi5F2p9gFiPca1P-139" value="" style="whiteSpace=wrap;html=1;verticalAlign=bottom;fontSize=16;fontStyle=1" vertex="1" parent="1">
          <mxGeometry x="-940" y="830" width="610" height="790" as="geometry" />
        </mxCell>
        <mxCell id="szwY4Oi5F2p9gFiPca1P-119" value="Networking" style="whiteSpace=wrap;verticalAlign=bottom;fontSize=20;fontStyle=1;labelPosition=center;verticalLabelPosition=top;align=center;spacingBottom=-37;" vertex="1" parent="1">
          <mxGeometry x="-20" y="500" width="920" height="850" as="geometry" />
        </mxCell>
        <mxCell id="szwY4Oi5F2p9gFiPca1P-84" value="On-Prem Internal Network (Simplified)" style="whiteSpace=wrap;html=1;verticalAlign=bottom;fontSize=20;fontStyle=1" vertex="1" parent="1">
          <mxGeometry x="-40" y="-310" width="1070" height="710" as="geometry" />
        </mxCell>
        <mxCell id="szwY4Oi5F2p9gFiPca1P-66" value="vLAN 125: AI" style="whiteSpace=wrap;html=1;verticalAlign=middle;fontSize=20;fontStyle=1" vertex="1" parent="1">
          <mxGeometry x="0.5" y="-270" width="280" height="190.91" as="geometry" />
        </mxCell>
        <mxCell id="szwY4Oi5F2p9gFiPca1P-35" value="vLAN 125" style="rounded=0;whiteSpace=wrap;labelBackgroundColor=default;labelBorderColor=default;labelPosition=center;verticalLabelPosition=top;align=center;verticalAlign=bottom;fontSize=20;fontStyle=1;spacing=2;html=1;textShadow=0;spacingBottom=-40;" vertex="1" parent="1">
          <mxGeometry x="-860" y="-330" width="610" height="940" as="geometry" />
        </mxCell>
        <mxCell id="szwY4Oi5F2p9gFiPca1P-32" value="Host System" style="whiteSpace=wrap;verticalAlign=bottom;align=center;labelPosition=center;verticalLabelPosition=middle;fontSize=18;fontStyle=1" vertex="1" parent="1">
          <mxGeometry x="-830" y="-280" width="550" height="410" as="geometry" />
        </mxCell>
        <mxCell id="szwY4Oi5F2p9gFiPca1P-9" style="edgeStyle=orthogonalEdgeStyle;rounded=0;orthogonalLoop=1;jettySize=auto;html=1;entryX=0.568;entryY=0;entryDx=0;entryDy=0;strokeWidth=3;startArrow=block;startFill=0;endArrow=block;endFill=0;entryPerimeter=0;" edge="1" parent="1" source="szwY4Oi5F2p9gFiPca1P-3">
          <mxGeometry relative="1" as="geometry">
            <mxPoint x="-1521.08" y="623.1199999999999" as="targetPoint" />
            <Array as="points">
              <mxPoint x="-1523" y="586" />
              <mxPoint x="-1521" y="586" />
            </Array>
          </mxGeometry>
        </mxCell>
        <mxCell id="szwY4Oi5F2p9gFiPca1P-3" value="&lt;h1&gt;AI Enclave&lt;/h1&gt;" style="whiteSpace=wrap;html=1;aspect=fixed;labelPosition=center;verticalLabelPosition=top;align=center;verticalAlign=bottom;" vertex="1" parent="1">
          <mxGeometry x="-1740" y="196" width="344" height="344" as="geometry" />
        </mxCell>
        <mxCell id="szwY4Oi5F2p9gFiPca1P-15" style="edgeStyle=orthogonalEdgeStyle;rounded=0;orthogonalLoop=1;jettySize=auto;html=1;startArrow=classic;startFill=1;strokeWidth=2;" edge="1" parent="1" source="szwY4Oi5F2p9gFiPca1P-2" target="szwY4Oi5F2p9gFiPca1P-14">
          <mxGeometry relative="1" as="geometry" />
        </mxCell>
        <mxCell id="szwY4Oi5F2p9gFiPca1P-2" value="" style="verticalLabelPosition=bottom;sketch=0;aspect=fixed;html=1;verticalAlign=top;strokeColor=none;align=center;outlineConnect=0;shape=mxgraph.citrix.xenserver;" vertex="1" parent="1">
          <mxGeometry x="-1689" y="213.12" width="102" height="120" as="geometry" />
        </mxCell>
        <mxCell id="szwY4Oi5F2p9gFiPca1P-18" style="edgeStyle=orthogonalEdgeStyle;rounded=0;orthogonalLoop=1;jettySize=auto;html=1;startArrow=block;startFill=0;endArrow=block;endFill=0;strokeWidth=3;entryX=0.5;entryY=1;entryDx=0;entryDy=0;" edge="1" parent="1" source="szwY4Oi5F2p9gFiPca1P-13" target="szwY4Oi5F2p9gFiPca1P-3">
          <mxGeometry relative="1" as="geometry">
            <mxPoint x="-1569" y="493.12" as="targetPoint" />
            <Array as="points">
              <mxPoint x="-1569" y="443" />
              <mxPoint x="-1569" y="530" />
              <mxPoint x="-1568" y="530" />
            </Array>
          </mxGeometry>
        </mxCell>
        <mxCell id="szwY4Oi5F2p9gFiPca1P-13" value="" style="verticalLabelPosition=bottom;sketch=0;aspect=fixed;html=1;verticalAlign=top;strokeColor=none;align=center;outlineConnect=0;shape=mxgraph.citrix.firewall;" vertex="1" parent="1">
          <mxGeometry x="-1709" y="390" width="75" height="93" as="geometry" />
        </mxCell>
        <mxCell id="szwY4Oi5F2p9gFiPca1P-17" style="edgeStyle=orthogonalEdgeStyle;rounded=0;orthogonalLoop=1;jettySize=auto;html=1;startArrow=classic;startFill=1;strokeWidth=2;" edge="1" parent="1" source="szwY4Oi5F2p9gFiPca1P-14" target="szwY4Oi5F2p9gFiPca1P-13">
          <mxGeometry relative="1" as="geometry">
            <Array as="points">
              <mxPoint x="-1549" y="419.12" />
              <mxPoint x="-1549" y="419.12" />
            </Array>
          </mxGeometry>
        </mxCell>
        <mxCell id="szwY4Oi5F2p9gFiPca1P-14" value="" style="verticalLabelPosition=bottom;sketch=0;aspect=fixed;html=1;verticalAlign=top;strokeColor=none;align=center;outlineConnect=0;shape=mxgraph.citrix.proxy_server;" vertex="1" parent="1">
          <mxGeometry x="-1509" y="380" width="76.5" height="90" as="geometry" />
        </mxCell>
        <mxCell id="szwY4Oi5F2p9gFiPca1P-19" value="&lt;h2&gt;Internal Corporate Network - vLAN 100 &lt;br&gt;&lt;/h2&gt;" style="rounded=0;whiteSpace=wrap;html=1;fillColor=#d5e8d4;strokeColor=#82b366;" vertex="1" parent="1">
          <mxGeometry x="-700" y="590" width="209" height="90" as="geometry" />
        </mxCell>
        <mxCell id="szwY4Oi5F2p9gFiPca1P-21" value="Virtualized Web Service" style="whiteSpace=wrap;verticalAlign=bottom;fontSize=16;fontStyle=1" vertex="1" parent="1">
          <mxGeometry x="-820" y="196" width="270" height="370" as="geometry" />
        </mxCell>
        <mxCell id="szwY4Oi5F2p9gFiPca1P-23" value="" style="edgeStyle=orthogonalEdgeStyle;rounded=0;orthogonalLoop=1;jettySize=auto;html=1;" edge="1" parent="1" source="szwY4Oi5F2p9gFiPca1P-3" target="szwY4Oi5F2p9gFiPca1P-24">
          <mxGeometry relative="1" as="geometry">
            <mxPoint x="-1396" y="368" as="sourcePoint" />
            <mxPoint x="-1043" y="368" as="targetPoint" />
          </mxGeometry>
        </mxCell>
        <mxCell id="szwY4Oi5F2p9gFiPca1P-24" value="" style="verticalLabelPosition=bottom;sketch=0;aspect=fixed;html=1;verticalAlign=top;strokeColor=none;align=center;outlineConnect=0;shape=mxgraph.citrix.inspection;" vertex="1" parent="1">
          <mxGeometry x="-1238" y="335.5" width="70" height="65" as="geometry" />
        </mxCell>
        <mxCell id="szwY4Oi5F2p9gFiPca1P-37" style="edgeStyle=orthogonalEdgeStyle;rounded=0;orthogonalLoop=1;jettySize=auto;html=1;fontSize=16;" edge="1" parent="1" source="szwY4Oi5F2p9gFiPca1P-27" target="szwY4Oi5F2p9gFiPca1P-36">
          <mxGeometry relative="1" as="geometry">
            <Array as="points">
              <mxPoint x="-680" y="-30" />
              <mxPoint x="-680" y="-30" />
            </Array>
          </mxGeometry>
        </mxCell>
        <mxCell id="szwY4Oi5F2p9gFiPca1P-48" style="edgeStyle=orthogonalEdgeStyle;rounded=0;orthogonalLoop=1;jettySize=auto;html=1;fontSize=16;" edge="1" parent="1" source="szwY4Oi5F2p9gFiPca1P-27" target="szwY4Oi5F2p9gFiPca1P-46">
          <mxGeometry relative="1" as="geometry">
            <Array as="points">
              <mxPoint x="-680" y="-70" />
              <mxPoint x="-460" y="-70" />
              <mxPoint x="-460" y="19" />
            </Array>
          </mxGeometry>
        </mxCell>
        <mxCell id="szwY4Oi5F2p9gFiPca1P-49" value="&lt;div align=&quot;center&quot;&gt;Host-Based Processes&lt;br&gt;&lt;/div&gt;" style="edgeStyle=orthogonalEdgeStyle;rounded=0;orthogonalLoop=1;jettySize=auto;html=1;fontSize=16;fontStyle=1" edge="1" parent="1" source="szwY4Oi5F2p9gFiPca1P-27" target="szwY4Oi5F2p9gFiPca1P-38">
          <mxGeometry x="-0.3318" y="10" relative="1" as="geometry">
            <Array as="points">
              <mxPoint x="-680" y="-70" />
              <mxPoint x="-460" y="-70" />
              <mxPoint x="-460" y="-181" />
            </Array>
            <mxPoint as="offset" />
          </mxGeometry>
        </mxCell>
        <mxCell id="szwY4Oi5F2p9gFiPca1P-27" value="Main ML/AI Physical Server" style="verticalLabelPosition=top;sketch=0;aspect=fixed;html=1;verticalAlign=bottom;strokeColor=none;align=center;outlineConnect=0;shape=mxgraph.citrix.xenserver;fontSize=16;fontStyle=1;labelPosition=center;" vertex="1" parent="1">
          <mxGeometry x="-769.95" y="-230" width="113.9" height="134" as="geometry" />
        </mxCell>
        <mxCell id="szwY4Oi5F2p9gFiPca1P-28" value="" style="verticalLabelPosition=bottom;sketch=0;aspect=fixed;html=1;verticalAlign=top;strokeColor=none;align=center;outlineConnect=0;shape=mxgraph.citrix.firewall;rotation=-5;" vertex="1" parent="1">
          <mxGeometry x="-423.21" y="-250.2" width="94.76" height="117.5" as="geometry" />
        </mxCell>
        <mxCell id="szwY4Oi5F2p9gFiPca1P-30" value="Layer 4 SOCKS Proxy" style="verticalLabelPosition=bottom;sketch=0;aspect=fixed;html=1;verticalAlign=top;strokeColor=none;align=center;outlineConnect=0;shape=mxgraph.citrix.proxy_server;" vertex="1" parent="1">
          <mxGeometry x="-1380" y="633.12" width="76.5" height="90" as="geometry" />
        </mxCell>
        <mxCell id="szwY4Oi5F2p9gFiPca1P-31" value="Middleware" style="verticalLabelPosition=top;sketch=0;aspect=fixed;html=1;verticalAlign=bottom;strokeColor=none;align=center;outlineConnect=0;shape=mxgraph.citrix.middleware;labelPosition=center;fontStyle=1;fontSize=16;" vertex="1" parent="1">
          <mxGeometry x="-770.0600000000001" y="236" width="134.12" height="80" as="geometry" />
        </mxCell>
        <mxCell id="szwY4Oi5F2p9gFiPca1P-53" style="edgeStyle=orthogonalEdgeStyle;rounded=0;orthogonalLoop=1;jettySize=auto;html=1;startArrow=none;startFill=0;fontSize=16;entryX=0.491;entryY=0.005;entryDx=0;entryDy=0;entryPerimeter=0;" edge="1" parent="1" source="szwY4Oi5F2p9gFiPca1P-36" target="szwY4Oi5F2p9gFiPca1P-21">
          <mxGeometry relative="1" as="geometry">
            <mxPoint x="-690" y="248" as="targetPoint" />
            <Array as="points">
              <mxPoint x="-689" y="110" />
              <mxPoint x="-688" y="110" />
              <mxPoint x="-688" y="170" />
              <mxPoint x="-687" y="170" />
            </Array>
          </mxGeometry>
        </mxCell>
        <mxCell id="szwY4Oi5F2p9gFiPca1P-36" value="&lt;font&gt;&lt;b&gt;qemu/virt-manager&lt;/b&gt;&lt;/font&gt;" style="verticalLabelPosition=bottom;sketch=0;aspect=fixed;html=1;verticalAlign=top;strokeColor=none;align=left;outlineConnect=0;shape=mxgraph.citrix.process;labelPosition=left;fontSize=16;" vertex="1" parent="1">
          <mxGeometry x="-720" y="-20" width="65.6" height="78.21" as="geometry" />
        </mxCell>
        <mxCell id="szwY4Oi5F2p9gFiPca1P-52" style="edgeStyle=orthogonalEdgeStyle;rounded=0;orthogonalLoop=1;jettySize=auto;html=1;startArrow=classic;startFill=1;fontSize=16;" edge="1" parent="1" source="szwY4Oi5F2p9gFiPca1P-10" target="szwY4Oi5F2p9gFiPca1P-31">
          <mxGeometry relative="1" as="geometry" />
        </mxCell>
        <mxCell id="szwY4Oi5F2p9gFiPca1P-10" value="" style="verticalLabelPosition=bottom;sketch=0;aspect=fixed;html=1;verticalAlign=top;strokeColor=none;align=center;outlineConnect=0;shape=mxgraph.citrix.web_server;fontSize=16;" vertex="1" parent="1">
          <mxGeometry x="-796.5" y="380" width="76.5" height="90" as="geometry" />
        </mxCell>
        <mxCell id="szwY4Oi5F2p9gFiPca1P-63" style="edgeStyle=orthogonalEdgeStyle;rounded=0;orthogonalLoop=1;jettySize=auto;html=1;startArrow=classic;startFill=1;" edge="1" parent="1" source="szwY4Oi5F2p9gFiPca1P-11" target="szwY4Oi5F2p9gFiPca1P-62">
          <mxGeometry relative="1" as="geometry">
            <Array as="points">
              <mxPoint x="-690" y="420" />
              <mxPoint x="-690" y="420" />
            </Array>
          </mxGeometry>
        </mxCell>
        <mxCell id="szwY4Oi5F2p9gFiPca1P-11" value="&lt;div&gt;&amp;nbsp;&amp;nbsp;&amp;nbsp;&amp;nbsp;&amp;nbsp;&amp;nbsp;&amp;nbsp;&amp;nbsp; &lt;b&gt;Virtual&amp;nbsp;&lt;/b&gt;&lt;/div&gt;&lt;div&gt;&lt;b&gt;Webservers&lt;/b&gt;&lt;/div&gt;" style="verticalLabelPosition=bottom;sketch=0;aspect=fixed;html=1;verticalAlign=top;strokeColor=none;align=right;outlineConnect=0;shape=mxgraph.citrix.web_server;fontSize=16;" vertex="1" parent="1">
          <mxGeometry x="-780" y="396" width="76.5" height="90" as="geometry" />
        </mxCell>
        <mxCell id="szwY4Oi5F2p9gFiPca1P-12" value="Virtual Webserver 3" style="verticalLabelPosition=bottom;sketch=0;aspect=fixed;html=1;verticalAlign=top;strokeColor=none;align=center;outlineConnect=0;shape=mxgraph.citrix.web_server;" vertex="1" parent="1">
          <mxGeometry x="-1360" y="440" width="76.5" height="90" as="geometry" />
        </mxCell>
        <mxCell id="szwY4Oi5F2p9gFiPca1P-47" value="" style="whiteSpace=wrap;html=1;aspect=fixed;fillColor=#dae8fc;strokeColor=#6c8ebf;" vertex="1" parent="1">
          <mxGeometry x="-1280" y="-320" width="160" height="160" as="geometry" />
        </mxCell>
        <mxCell id="szwY4Oi5F2p9gFiPca1P-50" value="&lt;font&gt;Containerized&lt;/font&gt; ML Model" style="whiteSpace=wrap;html=1;verticalAlign=bottom;fontSize=16;fontStyle=1" vertex="1" parent="1">
          <mxGeometry x="-520" y="196" width="240" height="370" as="geometry" />
        </mxCell>
        <mxCell id="szwY4Oi5F2p9gFiPca1P-55" style="edgeStyle=orthogonalEdgeStyle;rounded=0;orthogonalLoop=1;jettySize=auto;html=1;entryX=0.56;entryY=0.001;entryDx=0;entryDy=0;entryPerimeter=0;startArrow=none;startFill=0;fontSize=16;" edge="1" parent="1" source="szwY4Oi5F2p9gFiPca1P-46" target="szwY4Oi5F2p9gFiPca1P-50">
          <mxGeometry relative="1" as="geometry">
            <Array as="points">
              <mxPoint x="-386" y="130" />
              <mxPoint x="-386" y="130" />
            </Array>
          </mxGeometry>
        </mxCell>
        <mxCell id="szwY4Oi5F2p9gFiPca1P-46" value="&lt;b&gt;docker&lt;/b&gt;" style="verticalLabelPosition=bottom;sketch=0;aspect=fixed;html=1;verticalAlign=top;strokeColor=none;align=left;outlineConnect=0;shape=mxgraph.citrix.process;labelPosition=right;fontSize=16;" vertex="1" parent="1">
          <mxGeometry x="-420" y="-20" width="65.6" height="78.21" as="geometry" />
        </mxCell>
        <mxCell id="szwY4Oi5F2p9gFiPca1P-38" value="&lt;b&gt;Snort, UFW, ClamAV&lt;/b&gt;" style="verticalLabelPosition=bottom;sketch=0;aspect=fixed;html=1;verticalAlign=top;strokeColor=none;align=center;outlineConnect=0;shape=mxgraph.citrix.process;fontSize=16;" vertex="1" parent="1">
          <mxGeometry x="-410.00000000000006" y="-220" width="65.6" height="78.21" as="geometry" />
        </mxCell>
        <mxCell id="szwY4Oi5F2p9gFiPca1P-57" style="edgeStyle=orthogonalEdgeStyle;rounded=0;orthogonalLoop=1;jettySize=auto;html=1;startArrow=classic;startFill=1;fontSize=16;" edge="1" parent="1" source="szwY4Oi5F2p9gFiPca1P-45" target="szwY4Oi5F2p9gFiPca1P-56">
          <mxGeometry relative="1" as="geometry" />
        </mxCell>
        <mxCell id="szwY4Oi5F2p9gFiPca1P-45" value="&lt;div&gt;&lt;font&gt;&lt;b&gt;Llama model&lt;/b&gt;&lt;/font&gt;&lt;/div&gt;" style="verticalLabelPosition=bottom;sketch=0;aspect=fixed;html=1;verticalAlign=top;strokeColor=none;align=center;outlineConnect=0;shape=mxgraph.citrix.process;fontSize=16;" vertex="1" parent="1">
          <mxGeometry x="-433.55" y="406" width="67.1" height="80" as="geometry" />
        </mxCell>
        <mxCell id="szwY4Oi5F2p9gFiPca1P-64" style="edgeStyle=orthogonalEdgeStyle;rounded=0;orthogonalLoop=1;jettySize=auto;html=1;startArrow=block;startFill=0;endArrow=block;endFill=0;" edge="1" parent="1" source="szwY4Oi5F2p9gFiPca1P-56" target="szwY4Oi5F2p9gFiPca1P-31">
          <mxGeometry relative="1" as="geometry" />
        </mxCell>
        <mxCell id="szwY4Oi5F2p9gFiPca1P-56" value="Middleware" style="verticalLabelPosition=top;sketch=0;aspect=fixed;html=1;verticalAlign=bottom;strokeColor=none;align=center;outlineConnect=0;shape=mxgraph.citrix.middleware;labelPosition=center;fontSize=16;fontStyle=1" vertex="1" parent="1">
          <mxGeometry x="-467.06000000000006" y="236" width="134.12" height="80" as="geometry" />
        </mxCell>
        <mxCell id="szwY4Oi5F2p9gFiPca1P-60" style="edgeStyle=orthogonalEdgeStyle;rounded=0;orthogonalLoop=1;jettySize=auto;html=1;" edge="1" parent="1" source="szwY4Oi5F2p9gFiPca1P-58" target="szwY4Oi5F2p9gFiPca1P-59">
          <mxGeometry relative="1" as="geometry" />
        </mxCell>
        <mxCell id="szwY4Oi5F2p9gFiPca1P-58" value="Main ML/AI Physical Server" style="verticalLabelPosition=top;sketch=0;aspect=fixed;html=1;verticalAlign=bottom;strokeColor=none;align=center;outlineConnect=0;shape=mxgraph.citrix.xenserver;fontSize=16;fontStyle=1;labelPosition=center;" vertex="1" parent="1">
          <mxGeometry x="-1220" y="58.20999999999998" width="113.9" height="134" as="geometry" />
        </mxCell>
        <mxCell id="szwY4Oi5F2p9gFiPca1P-59" value="" style="verticalLabelPosition=bottom;sketch=0;aspect=fixed;html=1;verticalAlign=top;strokeColor=none;align=center;outlineConnect=0;shape=mxgraph.citrix.inspection;" vertex="1" parent="1">
          <mxGeometry x="-1020" y="92.71000000000001" width="70" height="65" as="geometry" />
        </mxCell>
        <mxCell id="szwY4Oi5F2p9gFiPca1P-61" style="edgeStyle=orthogonalEdgeStyle;rounded=0;orthogonalLoop=1;jettySize=auto;html=1;entryX=-0.005;entryY=0.484;entryDx=0;entryDy=0;entryPerimeter=0;" edge="1" parent="1" source="szwY4Oi5F2p9gFiPca1P-59" target="szwY4Oi5F2p9gFiPca1P-35">
          <mxGeometry relative="1" as="geometry" />
        </mxCell>
        <mxCell id="szwY4Oi5F2p9gFiPca1P-62" value="&amp;nbsp;&amp;nbsp;&amp;nbsp;&amp;nbsp;&amp;nbsp;&amp;nbsp;&amp;nbsp;&amp;nbsp;&amp;nbsp; &lt;b&gt;WAF&lt;/b&gt;" style="verticalLabelPosition=bottom;sketch=0;aspect=fixed;html=1;verticalAlign=top;strokeColor=none;align=center;outlineConnect=0;shape=mxgraph.citrix.web_server;fontSize=16;" vertex="1" parent="1">
          <mxGeometry x="-640" y="396" width="76.5" height="90" as="geometry" />
        </mxCell>
        <mxCell id="szwY4Oi5F2p9gFiPca1P-65" value="Main ML/AI Physical Server" style="verticalLabelPosition=top;sketch=0;aspect=fixed;html=1;verticalAlign=bottom;strokeColor=none;align=center;outlineConnect=0;shape=mxgraph.citrix.xenserver;fontSize=16;fontStyle=1;labelPosition=center;" vertex="1" parent="1">
          <mxGeometry x="-90" y="-660" width="113.9" height="134" as="geometry" />
        </mxCell>
        <mxCell id="szwY4Oi5F2p9gFiPca1P-68" value="&lt;font style=&quot;font-size: 18px;&quot;&gt;&lt;b&gt;Host Security&lt;br&gt;&lt;/b&gt;&lt;/font&gt;" style="swimlane;fontStyle=0;childLayout=stackLayout;horizontal=1;startSize=30;horizontalStack=0;resizeParent=1;resizeParentMax=0;resizeLast=0;collapsible=1;marginBottom=0;whiteSpace=wrap;html=1;" vertex="1" parent="1">
          <mxGeometry x="750" y="1430" width="550" height="250" as="geometry" />
        </mxCell>
        <mxCell id="szwY4Oi5F2p9gFiPca1P-69" value="&lt;div&gt;&lt;font style=&quot;font-size: 15px;&quot;&gt;&lt;b&gt;UFW:&lt;/b&gt;&lt;/font&gt;&lt;/div&gt;&lt;div&gt;&lt;font style=&quot;font-size: 15px;&quot;&gt;&lt;b&gt;- Default State: DENY ALL&lt;/b&gt;&lt;/font&gt;&lt;/div&gt;&lt;div&gt;&lt;font style=&quot;font-size: 15px;&quot;&gt;&lt;b&gt;- Whitelist:&amp;nbsp;&lt;/b&gt;&lt;/font&gt;&lt;/div&gt;&lt;div&gt;&lt;font style=&quot;font-size: 15px;&quot;&gt;&lt;b&gt;&lt;span style=&quot;white-space: pre;&quot;&gt;&#x9;&lt;/span&gt;- Rule: ALLOW IN/OUT - PORT 443&lt;br&gt; &lt;/b&gt;&lt;/font&gt;&lt;/div&gt;" style="text;strokeColor=none;fillColor=none;align=left;verticalAlign=middle;spacingLeft=4;spacingRight=4;overflow=hidden;points=[[0,0.5],[1,0.5]];portConstraint=eastwest;rotatable=0;whiteSpace=wrap;html=1;" vertex="1" parent="szwY4Oi5F2p9gFiPca1P-68">
          <mxGeometry y="30" width="550" height="100" as="geometry" />
        </mxCell>
        <mxCell id="szwY4Oi5F2p9gFiPca1P-70" value="&lt;div&gt;&lt;font style=&quot;font-size: 15px;&quot;&gt;&lt;b&gt;SELinux&lt;/b&gt;&lt;/font&gt;&lt;/div&gt;" style="text;strokeColor=none;fillColor=none;align=left;verticalAlign=middle;spacingLeft=4;spacingRight=4;overflow=hidden;points=[[0,0.5],[1,0.5]];portConstraint=eastwest;rotatable=0;whiteSpace=wrap;html=1;" vertex="1" parent="szwY4Oi5F2p9gFiPca1P-68">
          <mxGeometry y="130" width="550" height="30" as="geometry" />
        </mxCell>
        <mxCell id="szwY4Oi5F2p9gFiPca1P-71" value="&lt;div&gt;&lt;font style=&quot;font-size: 15px;&quot;&gt;&lt;b&gt;IDS:&lt;br&gt;&lt;/b&gt;&lt;/font&gt;&lt;/div&gt;&lt;div&gt;&lt;font style=&quot;font-size: 15px;&quot;&gt;&lt;b&gt;- Snort&lt;/b&gt;&lt;/font&gt;&lt;/div&gt;&lt;div&gt;&lt;font style=&quot;font-size: 15px;&quot;&gt;&lt;b&gt;- ClamAV&lt;/b&gt;&lt;/font&gt;&lt;/div&gt;&lt;div&gt;&lt;font style=&quot;font-size: 15px;&quot;&gt;&lt;b&gt;&lt;br&gt;&lt;/b&gt;&lt;/font&gt;&lt;/div&gt;" style="text;strokeColor=none;fillColor=none;align=left;verticalAlign=middle;spacingLeft=4;spacingRight=4;overflow=hidden;points=[[0,0.5],[1,0.5]];portConstraint=eastwest;rotatable=0;whiteSpace=wrap;html=1;" vertex="1" parent="szwY4Oi5F2p9gFiPca1P-68">
          <mxGeometry y="160" width="550" height="90" as="geometry" />
        </mxCell>
        <mxCell id="szwY4Oi5F2p9gFiPca1P-73" style="edgeStyle=orthogonalEdgeStyle;rounded=0;orthogonalLoop=1;jettySize=auto;html=1;exitX=0.495;exitY=0.94;exitDx=0;exitDy=0;exitPerimeter=0;entryX=0.471;entryY=-0.013;entryDx=0;entryDy=0;entryPerimeter=0;fillColor=#d5e8d4;strokeColor=#82b366;startArrow=classic;startFill=1;strokeWidth=3;" edge="1" parent="1" source="szwY4Oi5F2p9gFiPca1P-62" target="szwY4Oi5F2p9gFiPca1P-19">
          <mxGeometry relative="1" as="geometry">
            <mxPoint x="-602" y="566" as="targetPoint" />
            <Array as="points">
              <mxPoint x="-602" y="589" />
            </Array>
          </mxGeometry>
        </mxCell>
        <mxCell id="szwY4Oi5F2p9gFiPca1P-76" value="Main ML/AI Physical Server" style="verticalLabelPosition=top;sketch=0;aspect=fixed;html=1;verticalAlign=bottom;strokeColor=none;align=center;outlineConnect=0;shape=mxgraph.citrix.xenserver;fontSize=16;fontStyle=1;labelPosition=center;" vertex="1" parent="1">
          <mxGeometry x="-270" y="-526" width="113.9" height="134" as="geometry" />
        </mxCell>
        <mxCell id="szwY4Oi5F2p9gFiPca1P-81" style="edgeStyle=orthogonalEdgeStyle;rounded=0;orthogonalLoop=1;jettySize=auto;html=1;startArrow=classic;startFill=1;strokeWidth=3;" edge="1" parent="1" source="szwY4Oi5F2p9gFiPca1P-77" target="szwY4Oi5F2p9gFiPca1P-79">
          <mxGeometry relative="1" as="geometry" />
        </mxCell>
        <mxCell id="szwY4Oi5F2p9gFiPca1P-77" value="&lt;h2&gt;vLAN 100: Employee&lt;br&gt;&lt;/h2&gt;" style="rounded=0;whiteSpace=wrap;html=1;fillColor=#d5e8d4;strokeColor=#82b366;" vertex="1" parent="1">
          <mxGeometry x="707.8" y="-276.11000000000007" width="280" height="191.79" as="geometry" />
        </mxCell>
        <mxCell id="szwY4Oi5F2p9gFiPca1P-104" style="edgeStyle=orthogonalEdgeStyle;rounded=0;orthogonalLoop=1;jettySize=auto;html=1;strokeWidth=3;startArrow=classic;startFill=1;" edge="1" parent="1" source="szwY4Oi5F2p9gFiPca1P-79" target="szwY4Oi5F2p9gFiPca1P-92">
          <mxGeometry relative="1" as="geometry">
            <Array as="points">
              <mxPoint x="477" y="40" />
            </Array>
          </mxGeometry>
        </mxCell>
        <mxCell id="szwY4Oi5F2p9gFiPca1P-79" value="" style="verticalLabelPosition=bottom;sketch=0;aspect=fixed;html=1;verticalAlign=top;strokeColor=none;align=center;outlineConnect=0;shape=mxgraph.citrix.switch;" vertex="1" parent="1">
          <mxGeometry x="517.8" y="17.469999999999995" width="133.01" height="60" as="geometry" />
        </mxCell>
        <mxCell id="szwY4Oi5F2p9gFiPca1P-83" style="edgeStyle=orthogonalEdgeStyle;rounded=0;orthogonalLoop=1;jettySize=auto;html=1;startArrow=classic;startFill=1;strokeWidth=3;" edge="1" parent="1" source="szwY4Oi5F2p9gFiPca1P-82" target="szwY4Oi5F2p9gFiPca1P-79">
          <mxGeometry relative="1" as="geometry" />
        </mxCell>
        <mxCell id="szwY4Oi5F2p9gFiPca1P-82" value="&lt;h2&gt;vLAN 105: IT Management&lt;br&gt;&lt;/h2&gt;" style="rounded=0;whiteSpace=wrap;html=1;fillColor=#dae8fc;strokeColor=#6c8ebf;" vertex="1" parent="1">
          <mxGeometry x="707.8" y="-48.42000000000003" width="280" height="191.79" as="geometry" />
        </mxCell>
        <mxCell id="szwY4Oi5F2p9gFiPca1P-86" style="edgeStyle=orthogonalEdgeStyle;rounded=0;orthogonalLoop=1;jettySize=auto;html=1;strokeWidth=3;startArrow=classic;startFill=1;" edge="1" parent="1" source="szwY4Oi5F2p9gFiPca1P-101" target="szwY4Oi5F2p9gFiPca1P-79">
          <mxGeometry relative="1" as="geometry" />
        </mxCell>
        <mxCell id="szwY4Oi5F2p9gFiPca1P-85" value="&lt;h2&gt;vLAN 110: Remote&lt;br&gt;&lt;/h2&gt;" style="rounded=0;whiteSpace=wrap;html=1;fillColor=#fad9d5;strokeColor=#ae4132;" vertex="1" parent="1">
          <mxGeometry x="707.8" y="177.21999999999994" width="280" height="191.79" as="geometry" />
        </mxCell>
        <mxCell id="szwY4Oi5F2p9gFiPca1P-88" value="&lt;h2&gt;vLAN 115: Database&lt;br&gt;&lt;/h2&gt;" style="rounded=0;whiteSpace=wrap;html=1;fillColor=#fff2cc;strokeColor=#d6b656;" vertex="1" parent="1">
          <mxGeometry x="0.5" y="-49.10000000000005" width="280" height="191.79" as="geometry" />
        </mxCell>
        <mxCell id="szwY4Oi5F2p9gFiPca1P-94" style="edgeStyle=orthogonalEdgeStyle;rounded=0;orthogonalLoop=1;jettySize=auto;html=1;startArrow=classic;startFill=1;strokeWidth=3;" edge="1" parent="1" source="szwY4Oi5F2p9gFiPca1P-102" target="szwY4Oi5F2p9gFiPca1P-66">
          <mxGeometry relative="1" as="geometry" />
        </mxCell>
        <mxCell id="szwY4Oi5F2p9gFiPca1P-95" style="edgeStyle=orthogonalEdgeStyle;rounded=0;orthogonalLoop=1;jettySize=auto;html=1;entryX=1;entryY=0.5;entryDx=0;entryDy=0;strokeWidth=3;startArrow=classic;startFill=1;" edge="1" parent="1" source="szwY4Oi5F2p9gFiPca1P-102" target="szwY4Oi5F2p9gFiPca1P-88">
          <mxGeometry relative="1" as="geometry" />
        </mxCell>
        <mxCell id="szwY4Oi5F2p9gFiPca1P-92" value="" style="verticalLabelPosition=bottom;sketch=0;aspect=fixed;html=1;verticalAlign=top;strokeColor=none;align=center;outlineConnect=0;shape=mxgraph.citrix.switch;" vertex="1" parent="1">
          <mxGeometry x="410.37" y="-65.97" width="133.01" height="60" as="geometry" />
        </mxCell>
        <mxCell id="szwY4Oi5F2p9gFiPca1P-99" value="" style="edgeStyle=orthogonalEdgeStyle;rounded=0;orthogonalLoop=1;jettySize=auto;html=1;strokeWidth=3;startArrow=classic;startFill=1;" edge="1" parent="1" source="szwY4Oi5F2p9gFiPca1P-85" target="szwY4Oi5F2p9gFiPca1P-98">
          <mxGeometry relative="1" as="geometry">
            <mxPoint x="707.8" y="273.68" as="sourcePoint" />
            <mxPoint x="584.8" y="77.68" as="targetPoint" />
          </mxGeometry>
        </mxCell>
        <mxCell id="szwY4Oi5F2p9gFiPca1P-98" value="" style="verticalLabelPosition=bottom;sketch=0;aspect=fixed;html=1;verticalAlign=top;strokeColor=none;align=center;outlineConnect=0;shape=mxgraph.citrix.firewall;rotation=-5;" vertex="1" parent="1">
          <mxGeometry x="543.38" y="268.2" width="81.86" height="101.5" as="geometry" />
        </mxCell>
        <mxCell id="szwY4Oi5F2p9gFiPca1P-100" value="" style="edgeStyle=orthogonalEdgeStyle;rounded=0;orthogonalLoop=1;jettySize=auto;html=1;strokeWidth=3;startArrow=classic;startFill=1;" edge="1" parent="1" source="szwY4Oi5F2p9gFiPca1P-98" target="szwY4Oi5F2p9gFiPca1P-101">
          <mxGeometry relative="1" as="geometry">
            <mxPoint x="584.8" y="170.68" as="sourcePoint" />
            <mxPoint x="584.8" y="77.68" as="targetPoint" />
          </mxGeometry>
        </mxCell>
        <mxCell id="szwY4Oi5F2p9gFiPca1P-101" value="" style="verticalLabelPosition=bottom;sketch=0;aspect=fixed;html=1;verticalAlign=top;strokeColor=none;align=center;outlineConnect=0;shape=mxgraph.citrix.radius_server;" vertex="1" parent="1">
          <mxGeometry x="446.55" y="158.39000000000001" width="75.5" height="91" as="geometry" />
        </mxCell>
        <mxCell id="szwY4Oi5F2p9gFiPca1P-105" style="edgeStyle=orthogonalEdgeStyle;rounded=0;orthogonalLoop=1;jettySize=auto;html=1;startArrow=classic;startFill=1;strokeWidth=3;" edge="1" parent="1" source="szwY4Oi5F2p9gFiPca1P-102" target="szwY4Oi5F2p9gFiPca1P-92">
          <mxGeometry relative="1" as="geometry">
            <Array as="points">
              <mxPoint x="441" y="-90" />
              <mxPoint x="441" y="-90" />
            </Array>
          </mxGeometry>
        </mxCell>
        <mxCell id="szwY4Oi5F2p9gFiPca1P-102" value="" style="verticalLabelPosition=bottom;sketch=0;aspect=fixed;html=1;verticalAlign=top;strokeColor=none;align=center;outlineConnect=0;shape=mxgraph.citrix.firewall;rotation=-5;" vertex="1" parent="1">
          <mxGeometry x="400" y="-225.3" width="81.86" height="101.5" as="geometry" />
        </mxCell>
        <mxCell id="szwY4Oi5F2p9gFiPca1P-108" style="edgeStyle=orthogonalEdgeStyle;rounded=0;orthogonalLoop=1;jettySize=auto;html=1;strokeWidth=3;startArrow=classic;startFill=1;" edge="1" parent="1" source="szwY4Oi5F2p9gFiPca1P-107" target="szwY4Oi5F2p9gFiPca1P-92">
          <mxGeometry relative="1" as="geometry">
            <Array as="points">
              <mxPoint x="370" y="273" />
              <mxPoint x="370" y="-36" />
            </Array>
          </mxGeometry>
        </mxCell>
        <mxCell id="szwY4Oi5F2p9gFiPca1P-109" style="edgeStyle=orthogonalEdgeStyle;rounded=0;orthogonalLoop=1;jettySize=auto;html=1;strokeWidth=3;startArrow=classic;startFill=1;" edge="1" parent="1" source="szwY4Oi5F2p9gFiPca1P-107">
          <mxGeometry relative="1" as="geometry">
            <mxPoint x="510" y="40" as="targetPoint" />
            <Array as="points">
              <mxPoint x="370" y="273" />
              <mxPoint x="370" y="40" />
            </Array>
          </mxGeometry>
        </mxCell>
        <mxCell id="szwY4Oi5F2p9gFiPca1P-107" value="&lt;h2&gt;vLAN 120: Application&lt;br&gt;&lt;/h2&gt;" style="rounded=0;whiteSpace=wrap;html=1;fillColor=#b0e3e6;strokeColor=#0e8088;" vertex="1" parent="1">
          <mxGeometry x="0.5" y="177.21999999999994" width="280" height="191.79" as="geometry" />
        </mxCell>
        <mxCell id="szwY4Oi5F2p9gFiPca1P-112" value="&lt;div align=&quot;left&quot;&gt;&lt;font style=&quot;font-size: 16px;&quot;&gt;&lt;b&gt;&lt;font&gt;Firewall Rules:&lt;/font&gt;&lt;/b&gt;&lt;/font&gt;&lt;/div&gt;&lt;div align=&quot;left&quot;&gt;&lt;font style=&quot;font-size: 16px;&quot;&gt;- DEFAULT:&lt;/font&gt;&lt;/div&gt;&lt;div align=&quot;left&quot;&gt;&lt;font style=&quot;font-size: 16px;&quot;&gt;&lt;span style=&quot;white-space: pre;&quot;&gt;&#x9;&lt;/span&gt;- DENY/DROP ALL&lt;br&gt;&lt;/font&gt;&lt;/div&gt;&lt;div align=&quot;left&quot;&gt;&lt;font style=&quot;font-size: 16px;&quot;&gt;- ALLOW:&lt;/font&gt;&lt;/div&gt;&lt;div align=&quot;left&quot;&gt;&lt;font style=&quot;font-size: 16px;&quot;&gt;&lt;span style=&quot;white-space: pre;&quot;&gt;&#x9;&lt;/span&gt;- PORT 443 IN/OUT&lt;br&gt;&lt;/font&gt;&lt;/div&gt;" style="edgeStyle=orthogonalEdgeStyle;rounded=0;orthogonalLoop=1;jettySize=auto;html=1;entryX=0.001;entryY=0.526;entryDx=0;entryDy=0;entryPerimeter=0;startArrow=classic;startFill=1;align=left;strokeWidth=3;" edge="1" parent="1" source="szwY4Oi5F2p9gFiPca1P-110" target="szwY4Oi5F2p9gFiPca1P-111">
          <mxGeometry x="-0.257" y="-19" relative="1" as="geometry">
            <Array as="points">
              <mxPoint x="508" y="650" />
            </Array>
            <mxPoint as="offset" />
          </mxGeometry>
        </mxCell>
        <mxCell id="szwY4Oi5F2p9gFiPca1P-114" value="&lt;div align=&quot;left&quot;&gt;&lt;font style=&quot;font-size: 16px;&quot;&gt;&lt;b&gt;&lt;font&gt;Firewall Rules:&lt;/font&gt;&lt;/b&gt;&lt;/font&gt;&lt;/div&gt;&lt;div align=&quot;left&quot;&gt;&lt;font style=&quot;font-size: 16px;&quot;&gt;- DEFAULT:&lt;/font&gt;&lt;/div&gt;&lt;div align=&quot;left&quot;&gt;&lt;font style=&quot;font-size: 16px;&quot;&gt;&lt;span style=&quot;white-space: pre;&quot;&gt;&#x9;&lt;/span&gt;- DENY/DROP ALL&lt;br&gt;&lt;/font&gt;&lt;/div&gt;&lt;div align=&quot;left&quot;&gt;&lt;font style=&quot;font-size: 16px;&quot;&gt;- ALLOW:&lt;/font&gt;&lt;/div&gt;&lt;div align=&quot;left&quot;&gt;&lt;font style=&quot;font-size: 16px;&quot;&gt;&lt;span style=&quot;white-space: pre;&quot;&gt;&#x9;&lt;/span&gt;- PORT 22 IN/OUT&lt;br&gt;&lt;/font&gt;&lt;/div&gt;" style="edgeStyle=orthogonalEdgeStyle;rounded=0;orthogonalLoop=1;jettySize=auto;html=1;entryX=0;entryY=0.5;entryDx=0;entryDy=0;strokeWidth=3;" edge="1" parent="1" source="szwY4Oi5F2p9gFiPca1P-110" target="szwY4Oi5F2p9gFiPca1P-113">
          <mxGeometry x="0.581" y="26" relative="1" as="geometry">
            <Array as="points">
              <mxPoint x="190" y="876" />
            </Array>
            <mxPoint as="offset" />
          </mxGeometry>
        </mxCell>
        <mxCell id="szwY4Oi5F2p9gFiPca1P-118" value="&lt;div align=&quot;left&quot;&gt;&lt;font style=&quot;font-size: 16px;&quot;&gt;&lt;b&gt;&lt;font&gt;Firewall Rules:&lt;/font&gt;&lt;/b&gt;&lt;/font&gt;&lt;/div&gt;&lt;div align=&quot;left&quot;&gt;&lt;font style=&quot;font-size: 16px;&quot;&gt;- DEFAULT:&lt;/font&gt;&lt;/div&gt;&lt;div align=&quot;left&quot;&gt;&lt;font style=&quot;font-size: 16px;&quot;&gt;&lt;span style=&quot;white-space: pre;&quot;&gt;&lt;span style=&quot;white-space: pre;&quot;&gt;&amp;nbsp;&amp;nbsp;&amp;nbsp;&amp;nbsp;&lt;/span&gt;&lt;/span&gt;- DENY/DROP ALL&lt;br&gt;&lt;/font&gt;&lt;/div&gt;" style="edgeStyle=orthogonalEdgeStyle;rounded=0;orthogonalLoop=1;jettySize=auto;html=1;entryX=0;entryY=0.5;entryDx=0;entryDy=0;strokeWidth=3;" edge="1" parent="1" source="szwY4Oi5F2p9gFiPca1P-110" target="szwY4Oi5F2p9gFiPca1P-117">
          <mxGeometry x="0.6613" y="16" relative="1" as="geometry">
            <Array as="points">
              <mxPoint x="80" y="1096" />
            </Array>
            <mxPoint as="offset" />
          </mxGeometry>
        </mxCell>
        <mxCell id="szwY4Oi5F2p9gFiPca1P-110" value="vLAN 125: AI" style="whiteSpace=wrap;html=1;verticalAlign=middle;fontSize=20;fontStyle=1" vertex="1" parent="1">
          <mxGeometry x="0.5" y="560" width="280" height="190.91" as="geometry" />
        </mxCell>
        <mxCell id="szwY4Oi5F2p9gFiPca1P-111" value="&lt;h2&gt;vLAN 100: Employee&lt;br&gt;&lt;/h2&gt;" style="rounded=0;whiteSpace=wrap;html=1;fillColor=#d5e8d4;strokeColor=#82b366;" vertex="1" parent="1">
          <mxGeometry x="590" y="550" width="280" height="191.79" as="geometry" />
        </mxCell>
        <mxCell id="szwY4Oi5F2p9gFiPca1P-113" value="&lt;h2&gt;vLAN 105: IT Management&lt;br&gt;&lt;/h2&gt;" style="rounded=0;whiteSpace=wrap;html=1;fillColor=#dae8fc;strokeColor=#6c8ebf;" vertex="1" parent="1">
          <mxGeometry x="590" y="779.9999999999999" width="280" height="191.79" as="geometry" />
        </mxCell>
        <mxCell id="szwY4Oi5F2p9gFiPca1P-115" value="&lt;h2&gt;vLAN 110: Remote&lt;br&gt;&lt;/h2&gt;" style="rounded=0;whiteSpace=wrap;html=1;fillColor=#fad9d5;strokeColor=#ae4132;" vertex="1" parent="1">
          <mxGeometry x="590" y="1018.2099999999999" width="280" height="191.79" as="geometry" />
        </mxCell>
        <mxCell id="szwY4Oi5F2p9gFiPca1P-116" value="&lt;h2&gt;vLAN 120: Application&lt;br&gt;&lt;/h2&gt;" style="rounded=0;whiteSpace=wrap;html=1;fillColor=#b0e3e6;strokeColor=#0e8088;" vertex="1" parent="1">
          <mxGeometry x="523.5" y="1128.21" width="280" height="191.79" as="geometry" />
        </mxCell>
        <mxCell id="szwY4Oi5F2p9gFiPca1P-117" value="&lt;h2&gt;vLAN 115: Database&lt;br&gt;&lt;/h2&gt;" style="rounded=0;whiteSpace=wrap;html=1;fillColor=#fff2cc;strokeColor=#d6b656;" vertex="1" parent="1">
          <mxGeometry x="355" y="1000" width="280" height="191.79" as="geometry" />
        </mxCell>
        <mxCell id="szwY4Oi5F2p9gFiPca1P-120" value="Networking" style="whiteSpace=wrap;verticalAlign=middle;fontSize=20;fontStyle=1;labelPosition=center;verticalLabelPosition=middle;align=center;spacingBottom=0;" vertex="1" parent="1">
          <mxGeometry x="330" y="510" width="220" height="50" as="geometry" />
        </mxCell>
        <mxCell id="szwY4Oi5F2p9gFiPca1P-121" value="&lt;font&gt;Containerized&lt;/font&gt; ML Model" style="whiteSpace=wrap;html=1;verticalAlign=bottom;fontSize=16;fontStyle=1" vertex="1" parent="1">
          <mxGeometry x="-900" y="1186.42" width="240" height="370" as="geometry" />
        </mxCell>
        <mxCell id="szwY4Oi5F2p9gFiPca1P-122" value="&lt;div&gt;&lt;font&gt;&lt;b&gt;Llama model&lt;/b&gt;&lt;/font&gt;&lt;/div&gt;" style="verticalLabelPosition=bottom;sketch=0;aspect=fixed;html=1;verticalAlign=top;strokeColor=none;align=center;outlineConnect=0;shape=mxgraph.citrix.process;fontSize=16;" vertex="1" parent="1">
          <mxGeometry x="-813.55" y="1396.42" width="67.1" height="80" as="geometry" />
        </mxCell>
        <mxCell id="szwY4Oi5F2p9gFiPca1P-123" value="&lt;div&gt;--read-only&lt;/div&gt;&lt;div&gt;USER nonroot:nonroot&lt;/div&gt;" style="text;html=1;align=center;verticalAlign=middle;whiteSpace=wrap;rounded=0;fontSize=18;" vertex="1" parent="1">
          <mxGeometry x="-1303.5" y="830" width="216" height="160" as="geometry" />
        </mxCell>
        <mxCell id="szwY4Oi5F2p9gFiPca1P-124" value="&lt;font style=&quot;font-size: 18px;&quot;&gt;Docker Security Configurations&lt;br&gt;&lt;/font&gt;" style="swimlane;fontStyle=0;childLayout=stackLayout;horizontal=1;startSize=50;horizontalStack=0;resizeParent=1;resizeParentMax=0;resizeLast=0;collapsible=1;marginBottom=0;whiteSpace=wrap;html=1;" vertex="1" parent="1">
          <mxGeometry x="-898.53" y="1188.21" width="237.06" height="170" as="geometry" />
        </mxCell>
        <mxCell id="szwY4Oi5F2p9gFiPca1P-125" value="&lt;div&gt;--read-only&lt;/div&gt;" style="text;strokeColor=none;fillColor=none;align=left;verticalAlign=middle;spacingLeft=4;spacingRight=4;overflow=hidden;points=[[0,0.5],[1,0.5]];portConstraint=eastwest;rotatable=0;whiteSpace=wrap;html=1;fontSize=18;" vertex="1" parent="szwY4Oi5F2p9gFiPca1P-124">
          <mxGeometry y="50" width="237.06" height="40" as="geometry" />
        </mxCell>
        <mxCell id="szwY4Oi5F2p9gFiPca1P-126" value="&lt;div&gt;USER nonroot:nonroot&lt;/div&gt;" style="text;strokeColor=none;fillColor=none;align=left;verticalAlign=middle;spacingLeft=4;spacingRight=4;overflow=hidden;points=[[0,0.5],[1,0.5]];portConstraint=eastwest;rotatable=0;whiteSpace=wrap;html=1;fontSize=18;" vertex="1" parent="szwY4Oi5F2p9gFiPca1P-124">
          <mxGeometry y="90" width="237.06" height="40" as="geometry" />
        </mxCell>
        <mxCell id="szwY4Oi5F2p9gFiPca1P-127" value="cgroup" style="text;strokeColor=none;fillColor=none;align=left;verticalAlign=middle;spacingLeft=4;spacingRight=4;overflow=hidden;points=[[0,0.5],[1,0.5]];portConstraint=eastwest;rotatable=0;whiteSpace=wrap;html=1;fontSize=18;" vertex="1" parent="szwY4Oi5F2p9gFiPca1P-124">
          <mxGeometry y="130" width="237.06" height="40" as="geometry" />
        </mxCell>
        <mxCell id="szwY4Oi5F2p9gFiPca1P-128" value="Virtualized Webservers" style="whiteSpace=wrap;html=1;verticalAlign=bottom;fontSize=16;fontStyle=1" vertex="1" parent="1">
          <mxGeometry x="-630" y="1188.21" width="260" height="370" as="geometry" />
        </mxCell>
        <mxCell id="szwY4Oi5F2p9gFiPca1P-130" value="&lt;font style=&quot;font-size: 18px;&quot;&gt;VM Security Configurations&lt;br&gt;&lt;/font&gt;" style="swimlane;fontStyle=0;childLayout=stackLayout;horizontal=1;startSize=50;horizontalStack=0;resizeParent=1;resizeParentMax=0;resizeLast=0;collapsible=1;marginBottom=0;whiteSpace=wrap;html=1;" vertex="1" parent="1">
          <mxGeometry x="-628.53" y="1190" width="258.53" height="170" as="geometry" />
        </mxCell>
        <mxCell id="szwY4Oi5F2p9gFiPca1P-131" value="&lt;div&gt;AppArmor, SELinux&lt;br&gt;&lt;/div&gt;" style="text;strokeColor=none;fillColor=none;align=left;verticalAlign=middle;spacingLeft=4;spacingRight=4;overflow=hidden;points=[[0,0.5],[1,0.5]];portConstraint=eastwest;rotatable=0;whiteSpace=wrap;html=1;fontSize=18;" vertex="1" parent="szwY4Oi5F2p9gFiPca1P-130">
          <mxGeometry y="50" width="258.53" height="30" as="geometry" />
        </mxCell>
        <mxCell id="szwY4Oi5F2p9gFiPca1P-132" value="UFW, iptables, snort, logging" style="text;strokeColor=none;fillColor=none;align=left;verticalAlign=middle;spacingLeft=4;spacingRight=4;overflow=hidden;points=[[0,0.5],[1,0.5]];portConstraint=eastwest;rotatable=0;whiteSpace=wrap;html=1;fontSize=18;" vertex="1" parent="szwY4Oi5F2p9gFiPca1P-130">
          <mxGeometry y="80" width="258.53" height="30" as="geometry" />
        </mxCell>
        <mxCell id="szwY4Oi5F2p9gFiPca1P-135" value="TLS management" style="text;strokeColor=none;fillColor=none;align=left;verticalAlign=middle;spacingLeft=4;spacingRight=4;overflow=hidden;points=[[0,0.5],[1,0.5]];portConstraint=eastwest;rotatable=0;whiteSpace=wrap;html=1;fontSize=18;" vertex="1" parent="szwY4Oi5F2p9gFiPca1P-130">
          <mxGeometry y="110" width="258.53" height="30" as="geometry" />
        </mxCell>
        <mxCell id="szwY4Oi5F2p9gFiPca1P-133" value="Rate-limiting" style="text;strokeColor=none;fillColor=none;align=left;verticalAlign=middle;spacingLeft=4;spacingRight=4;overflow=hidden;points=[[0,0.5],[1,0.5]];portConstraint=eastwest;rotatable=0;whiteSpace=wrap;html=1;fontSize=18;" vertex="1" parent="szwY4Oi5F2p9gFiPca1P-130">
          <mxGeometry y="140" width="258.53" height="30" as="geometry" />
        </mxCell>
        <mxCell id="szwY4Oi5F2p9gFiPca1P-134" value="&lt;div align=&quot;center&quot;&gt;&lt;b&gt;Middleware Proxy,&lt;/b&gt;&lt;/div&gt;&lt;div align=&quot;center&quot;&gt;&lt;b&gt;Reverse Proxy, WAF&lt;/b&gt;&lt;br&gt;&lt;/div&gt;" style="verticalLabelPosition=bottom;sketch=0;aspect=fixed;html=1;verticalAlign=top;strokeColor=none;align=center;outlineConnect=0;shape=mxgraph.citrix.web_server;fontSize=16;" vertex="1" parent="1">
          <mxGeometry x="-538.25" y="1386.42" width="76.5" height="90" as="geometry" />
        </mxCell>
        <mxCell id="szwY4Oi5F2p9gFiPca1P-137" style="edgeStyle=orthogonalEdgeStyle;rounded=0;orthogonalLoop=1;jettySize=auto;html=1;entryX=0.5;entryY=0;entryDx=0;entryDy=0;strokeWidth=3;" edge="1" parent="1" source="szwY4Oi5F2p9gFiPca1P-136" target="szwY4Oi5F2p9gFiPca1P-124">
          <mxGeometry relative="1" as="geometry" />
        </mxCell>
        <mxCell id="szwY4Oi5F2p9gFiPca1P-138" value="&lt;font style=&quot;font-size: 16px;&quot;&gt;SSH only via localhost&lt;br&gt;&lt;/font&gt;" style="edgeStyle=orthogonalEdgeStyle;rounded=0;orthogonalLoop=1;jettySize=auto;html=1;entryX=0.5;entryY=0;entryDx=0;entryDy=0;strokeWidth=3;" edge="1" parent="1" source="szwY4Oi5F2p9gFiPca1P-136" target="szwY4Oi5F2p9gFiPca1P-130">
          <mxGeometry x="-0.2924" y="17" relative="1" as="geometry">
            <mxPoint x="1" as="offset" />
          </mxGeometry>
        </mxCell>
        <mxCell id="szwY4Oi5F2p9gFiPca1P-136" value="Main ML/AI Physical Server" style="verticalLabelPosition=top;sketch=0;aspect=fixed;html=1;verticalAlign=bottom;strokeColor=none;align=center;outlineConnect=0;shape=mxgraph.citrix.xenserver;fontSize=16;fontStyle=1;labelPosition=center;" vertex="1" parent="1">
          <mxGeometry x="-690" y="890.0000000000001" width="113.9" height="134" as="geometry" />
        </mxCell>
      </root>
    </mxGraphModel>
  </diagram>
</mxfile>
